<?xml version="1.0" encoding="UTF-8" standalone="no"?>
<!-- Created with Inkscape (http://www.inkscape.org/) -->

<svg
   xmlns:dc="http://purl.org/dc/elements/1.1/"
   xmlns:cc="http://creativecommons.org/ns#"
   xmlns:rdf="http://www.w3.org/1999/02/22-rdf-syntax-ns#"
   xmlns:svg="http://www.w3.org/2000/svg"
   xmlns="http://www.w3.org/2000/svg"
   xmlns:xlink="http://www.w3.org/1999/xlink"
   xmlns:sodipodi="http://sodipodi.sourceforge.net/DTD/sodipodi-0.dtd"
   xmlns:inkscape="http://www.inkscape.org/namespaces/inkscape"
   width="187.03299mm"
   height="107.1285mm"
   viewBox="0 0 187.03299 107.1285"
   version="1.1"
   id="svg8"
   inkscape:version="0.92.3 (2405546, 2018-03-11)"
   sodipodi:docname="arch.svg">
  <defs
     id="defs2">
    <marker
       inkscape:isstock="true"
       style="overflow:visible"
       id="marker4299"
       refX="0"
       refY="0"
       orient="auto"
       inkscape:stockid="Arrow1Lstart">
      <path
         transform="matrix(0.8,0,0,0.8,10,0)"
         style="fill:#000000;fill-opacity:1;fill-rule:evenodd;stroke:#000000;stroke-width:1.00000003pt;stroke-opacity:1"
         d="M 0,0 5,-5 -12.5,0 5,5 Z"
         id="path4297"
         inkscape:connector-curvature="0" />
    </marker>
    <marker
       inkscape:isstock="true"
       style="overflow:visible"
       id="marker4229"
       refX="0"
       refY="0"
       orient="auto"
       inkscape:stockid="Arrow1Lend">
      <path
         transform="matrix(-0.8,0,0,-0.8,-10,0)"
         style="fill:#000000;fill-opacity:1;fill-rule:evenodd;stroke:#000000;stroke-width:1.00000003pt;stroke-opacity:1"
         d="M 0,0 5,-5 -12.5,0 5,5 Z"
         id="path4227"
         inkscape:connector-curvature="0" />
    </marker>
    <marker
       inkscape:isstock="true"
       style="overflow:visible"
       id="marker4177"
       refX="0"
       refY="0"
       orient="auto"
       inkscape:stockid="Arrow1Lend">
      <path
         transform="matrix(-0.8,0,0,-0.8,-10,0)"
         style="fill:#000000;fill-opacity:1;fill-rule:evenodd;stroke:#000000;stroke-width:1.00000003pt;stroke-opacity:1"
         d="M 0,0 5,-5 -12.5,0 5,5 Z"
         id="path4175"
         inkscape:connector-curvature="0" />
    </marker>
    <marker
       inkscape:stockid="Arrow1Lstart"
       orient="auto"
       refY="0"
       refX="0"
       id="Arrow1Lstart"
       style="overflow:visible"
       inkscape:isstock="true"
       inkscape:collect="always">
      <path
         id="path1296"
         d="M 0,0 5,-5 -12.5,0 5,5 Z"
         style="fill:#000000;fill-opacity:1;fill-rule:evenodd;stroke:#000000;stroke-width:1.00000003pt;stroke-opacity:1"
         transform="matrix(0.8,0,0,0.8,10,0)"
         inkscape:connector-curvature="0" />
    </marker>
    <marker
       inkscape:stockid="Arrow1Lend"
       orient="auto"
       refY="0"
       refX="0"
       id="Arrow1Lend"
       style="overflow:visible"
       inkscape:isstock="true"
       inkscape:collect="always">
      <path
         id="path1299"
         d="M 0,0 5,-5 -12.5,0 5,5 Z"
         style="fill:#000000;fill-opacity:1;fill-rule:evenodd;stroke:#000000;stroke-width:1.00000003pt;stroke-opacity:1"
         transform="matrix(-0.8,0,0,-0.8,-10,0)"
         inkscape:connector-curvature="0" />
    </marker>
    <linearGradient
       x1="-403.07309"
       y1="-40.681377"
       x2="-560.61346"
       y2="-32.881535"
       id="linearGradient3003"
       xlink:href="#linearGradient3354-9"
       gradientUnits="userSpaceOnUse"
       gradientTransform="matrix(0.13168881,0,0,0.13168881,158.91096,109.14563)" />
    <linearGradient
       id="linearGradient3354-9">
      <stop
         id="stop3356-9"
         style="stop-color:#959595;stop-opacity:1"
         offset="0" />
      <stop
         id="stop3358-9"
         style="stop-color:#cccccc;stop-opacity:1"
         offset="1" />
    </linearGradient>
    <marker
       inkscape:stockid="Arrow1Lstart"
       orient="auto"
       refY="0"
       refX="0"
       id="Arrow1Lstart-9"
       style="overflow:visible"
       inkscape:isstock="true">
      <path
         inkscape:connector-curvature="0"
         id="path1296-1"
         d="M 0,0 5,-5 -12.5,0 5,5 Z"
         style="fill:#000000;fill-opacity:1;fill-rule:evenodd;stroke:#000000;stroke-width:1.00000003pt;stroke-opacity:1"
         transform="matrix(0.8,0,0,0.8,10,0)" />
    </marker>
    <marker
       inkscape:stockid="Arrow1Lend"
       orient="auto"
       refY="0"
       refX="0"
       id="Arrow1Lend-2"
       style="overflow:visible"
       inkscape:isstock="true">
      <path
         inkscape:connector-curvature="0"
         id="path1299-7"
         d="M 0,0 5,-5 -12.5,0 5,5 Z"
         style="fill:#000000;fill-opacity:1;fill-rule:evenodd;stroke:#000000;stroke-width:1.00000003pt;stroke-opacity:1"
         transform="matrix(-0.8,0,0,-0.8,-10,0)" />
    </marker>
    <marker
       inkscape:stockid="Arrow1Lstart"
       orient="auto"
       refY="0"
       refX="0"
       id="Arrow1Lstart-9-6"
       style="overflow:visible"
       inkscape:isstock="true">
      <path
         inkscape:connector-curvature="0"
         id="path1296-1-7"
         d="M 0,0 5,-5 -12.5,0 5,5 Z"
         style="fill:#000000;fill-opacity:1;fill-rule:evenodd;stroke:#000000;stroke-width:1.00000003pt;stroke-opacity:1"
         transform="matrix(0.8,0,0,0.8,10,0)" />
    </marker>
    <marker
       inkscape:stockid="Arrow1Lend"
       orient="auto"
       refY="0"
       refX="0"
       id="Arrow1Lend-2-5"
       style="overflow:visible"
       inkscape:isstock="true">
      <path
         inkscape:connector-curvature="0"
         id="path1299-7-3"
         d="M 0,0 5,-5 -12.5,0 5,5 Z"
         style="fill:#000000;fill-opacity:1;fill-rule:evenodd;stroke:#000000;stroke-width:1.00000003pt;stroke-opacity:1"
         transform="matrix(-0.8,0,0,-0.8,-10,0)" />
    </marker>
    <marker
       inkscape:stockid="Arrow1Lstart"
       orient="auto"
       refY="0"
       refX="0"
       id="Arrow1Lstart-9-62"
       style="overflow:visible"
       inkscape:isstock="true">
      <path
         inkscape:connector-curvature="0"
         id="path1296-1-9"
         d="M 0,0 5,-5 -12.5,0 5,5 Z"
         style="fill:#000000;fill-opacity:1;fill-rule:evenodd;stroke:#000000;stroke-width:1.00000003pt;stroke-opacity:1"
         transform="matrix(0.8,0,0,0.8,10,0)" />
    </marker>
    <marker
       inkscape:stockid="Arrow1Lend"
       orient="auto"
       refY="0"
       refX="0"
       id="Arrow1Lend-2-1"
       style="overflow:visible"
       inkscape:isstock="true">
      <path
         inkscape:connector-curvature="0"
         id="path1299-7-2"
         d="M 0,0 5,-5 -12.5,0 5,5 Z"
         style="fill:#000000;fill-opacity:1;fill-rule:evenodd;stroke:#000000;stroke-width:1.00000003pt;stroke-opacity:1"
         transform="matrix(-0.8,0,0,-0.8,-10,0)" />
    </marker>
  </defs>
  <sodipodi:namedview
     id="base"
     pagecolor="#ffffff"
     bordercolor="#666666"
     borderopacity="1.0"
     inkscape:pageopacity="0.0"
     inkscape:pageshadow="2"
     inkscape:zoom="1.979899"
     inkscape:cx="123.3612"
     inkscape:cy="202.29726"
     inkscape:document-units="mm"
     inkscape:current-layer="layer1"
     showgrid="false"
     inkscape:window-width="3840"
     inkscape:window-height="2049"
     inkscape:window-x="0"
     inkscape:window-y="0"
     inkscape:window-maximized="1"
     fit-margin-top="10"
     fit-margin-left="10"
     fit-margin-right="10"
     fit-margin-bottom="10" />
  <metadata
     id="metadata5">
    <rdf:RDF>
      <cc:Work
         rdf:about="">
        <dc:format>image/svg+xml</dc:format>
        <dc:type
           rdf:resource="http://purl.org/dc/dcmitype/StillImage" />
        <dc:title></dc:title>
      </cc:Work>
    </rdf:RDF>
  </metadata>
  <g
     inkscape:label="Layer 1"
     inkscape:groupmode="layer"
     id="layer1"
     transform="translate(-11.662456,-39.992295)">
    <g
       transform="matrix(0.26458333,0,0,0.26458333,18.607157,91.339812)"
       id="g975">
      <path
         style="fill:none;stroke:#009900;stroke-width:5;stroke-linecap:round;stroke-linejoin:round"
         inkscape:connector-curvature="0"
         id="a"
         d="M 14.047838,32.727592 V 13.662897 L 33.110337,32.727592 V 13.662897" />
      <path
         style="fill:#009900"
         inkscape:connector-curvature="0"
         d="M 44.6875,11.1875 44,12.46875 38.6875,22.125 38,23.34375 38.6875,24.5625 44,33.90625 44.71875,35.1875 h 1.46875 10.875 1.5625 l 0.6875,-1.40625 3.96875,-8 1.78125,-3.625 H 61.03125 L 50.875,22.1875 c -1.320782,-0.01868 -2.535605,1.179086 -2.535605,2.5 0,1.320914 1.214823,2.518679 2.535605,2.5 L 57,27.15625 55.5,30.1875 h -7.875 l -3.90625,-6.875 3.9375,-7.125 h 8.377221 l 1.953125,4.007812 h 5.03125 L 59.845971,12.59375 59.158471,11.1875 H 57.595971 46.1875 Z"
         id="path962" />
      <path
         style="fill:#009900"
         inkscape:connector-curvature="0"
         d="m 70.013782,11.15625 c -1.308989,0.01639 -2.485084,1.222261 -2.46875,2.53125 v 6.514509 h 5 V 13.6875 c 0.01659,-1.329821 -1.201429,-2.547843 -2.53125,-2.53125 z"
         id="path964" />
      <use
         y="0"
         x="0"
         height="1052.3622"
         transform="matrix(-1,0,0,1,111.13905,0.04841623)"
         width="744.09448"
         xlink:href="#a"
         id="use966" />
      <g
         transform="translate(0.10586251,0.33010228)"
         id="g971">
        <path
           style="fill:none;stroke:#009900;stroke-width:5;stroke-linecap:round;stroke-linejoin:round"
           inkscape:connector-curvature="0"
           id="b"
           d="m 104.90935,13.374209 19.08481,19.017856" />
        <use
           y="0"
           x="0"
           height="1052.3622"
           transform="matrix(-1,0,0,1,228.92583,0)"
           width="744.09448"
           xlink:href="#b"
           id="use969" />
      </g>
      <path
         style="fill:#009900"
         inkscape:connector-curvature="0"
         d="m 70.013782,35.204069 c -1.308989,-0.01639 -2.485084,-1.222261 -2.46875,-2.53125 V 22.208456 h 5 v 10.464363 c 0.01659,1.329821 -1.201429,2.547843 -2.53125,2.53125 z"
         id="path973" />
    </g>
    <path
       inkscape:connector-curvature="0"
       style="fill:#092e20;stroke-width:0.26458332"
       d="m 188.69544,103.86686 c 0,1.09476 -0.88748,1.98224 -1.98225,1.98224 h -31.7223 c -1.09476,0 -1.98224,-0.88748 -1.98224,-1.98224 V 92.540169 c 0,-1.094766 0.88748,-1.982246 1.98224,-1.982246 h 31.7223 c 1.09477,0 1.98225,0.88748 1.98225,1.982246 z"
       id="path1091" />
    <g
       id="g1107"
       transform="matrix(0.07079449,0,0,0.07079449,153.00865,90.557923)"
       style="stroke-width:3.73734355">
      <g
         id="g1105"
         style="stroke-width:3.73734355">
        <path
           style="fill:#ffffff;stroke-width:3.73734355"
           inkscape:connector-curvature="0"
           d="m 86.945,33.919 h 23.872 v 110.496 c -12.246,2.325 -21.237,3.255 -31.002,3.255 -29.142,0 -44.333,-13.174 -44.333,-38.443 0,-24.336 16.122,-40.147 41.078,-40.147 3.875,0 6.82,0.311 10.386,1.239 v -36.4 z m 0,55.62 C 84.155,88.61 81.83,88.3 78.885,88.3 c -12.091,0 -19.067,7.441 -19.067,20.46 0,12.713 6.666,19.688 18.912,19.688 2.634,0 4.805,-0.155 8.215,-0.618 z"
           id="path1093" />
        <path
           style="fill:#ffffff;stroke-width:3.73734355"
           inkscape:connector-curvature="0"
           d="m 148.793,70.783 v 55.341 c 0,19.065 -1.395,28.21 -5.58,36.117 -3.876,7.596 -8.992,12.399 -19.532,17.67 L 101.514,169.37 c 10.541,-4.96 15.656,-9.297 18.911,-15.966 3.411,-6.819 4.497,-14.727 4.497,-35.498 V 70.783 Z M 124.922,34.046 h 23.871 v 24.493 h -23.871 z"
           id="path1095" />
        <path
           style="fill:#ffffff;stroke-width:3.73734355"
           inkscape:connector-curvature="0"
           d="m 163.212,76.209 c 10.542,-4.961 20.617,-7.13 31.623,-7.13 12.246,0 20.306,3.255 23.872,9.611 2.014,3.564 2.634,8.214 2.634,18.137 v 48.517 c -10.697,1.552 -24.182,2.636 -34.102,2.636 -19.996,0 -28.988,-6.977 -28.988,-22.476 0,-16.744 11.936,-24.493 41.234,-26.975 v -5.271 c 0,-4.339 -2.17,-5.888 -8.216,-5.888 -8.835,0 -18.756,2.479 -28.058,7.285 V 76.209 Z m 37.358,37.978 c -15.812,1.552 -20.927,4.031 -20.927,10.231 0,4.65 2.946,6.821 9.456,6.821 3.566,0 6.82,-0.311 11.471,-1.084 z"
           id="path1097" />
        <path
           style="fill:#ffffff;stroke-width:3.73734355"
           inkscape:connector-curvature="0"
           d="m 232.968,74.505 c 14.105,-3.722 25.731,-5.426 37.512,-5.426 12.246,0 21.082,2.788 26.354,8.216 4.96,5.113 6.509,10.693 6.509,22.632 v 46.813 h -23.871 v -45.884 c 0,-9.145 -3.1,-12.557 -11.625,-12.557 -3.255,0 -6.2,0.311 -11.007,1.706 v 56.734 H 232.969 V 74.505 Z"
           id="path1099" />
        <path
           style="fill:#ffffff;stroke-width:3.73734355"
           inkscape:connector-curvature="0"
           d="m 312.623,159.761 c 8.372,4.339 16.742,6.354 25.577,6.354 15.655,0 22.321,-6.354 22.321,-21.546 0,-0.154 0,-0.31 0,-0.467 -4.65,2.326 -9.301,3.257 -15.5,3.257 -20.927,0 -34.26,-13.797 -34.26,-35.652 0,-27.128 19.688,-42.473 54.564,-42.473 10.232,0 19.688,1.084 31.159,3.407 l -8.174,17.222 c -6.356,-1.241 -0.509,-0.167 -5.312,-0.632 v 2.48 l 0.309,10.074 0.154,13.022 c 0.155,3.253 0.155,6.51 0.311,9.764 0,2.945 0,4.342 0,6.512 0,20.462 -1.705,30.073 -6.82,37.977 -7.441,11.627 -20.307,17.362 -38.598,17.362 -9.301,0 -17.36,-1.396 -25.732,-4.651 v -22.01 z m 47.434,-71.306 c -0.31,0 -0.619,0 -0.774,0 h -1.706 c -4.649,-0.155 -10.074,1.084 -13.796,3.409 -5.734,3.257 -8.681,9.146 -8.681,17.518 0,11.937 5.892,18.756 16.432,18.756 3.255,0 5.891,-0.62 8.99,-1.55 v -1.705 -6.51 c 0,-2.79 -0.154,-5.892 -0.154,-9.146 l -0.154,-11.006 -0.156,-7.905 v -1.861 z"
           id="path1101" />
        <path
           style="fill:#ffffff;stroke-width:3.73734355"
           inkscape:connector-curvature="0"
           d="m 433.543,68.77 c 23.871,0 38.443,15.037 38.443,39.371 0,24.957 -15.19,40.613 -39.373,40.613 -23.873,0 -38.599,-15.036 -38.599,-39.216 10e-4,-25.114 15.193,-40.768 39.529,-40.768 z m -0.467,60.763 c 9.147,0 14.573,-7.596 14.573,-20.773 0,-13.019 -5.271,-20.771 -14.415,-20.771 -9.457,0 -14.884,7.598 -14.884,20.771 10e-4,13.178 5.427,20.773 14.726,20.773 z"
           id="path1103" />
      </g>
    </g>
    <g
       transform="matrix(0.06450607,0,0,0.06450607,73.660598,106.64326)"
       id="text3109-8-2-3-2"
       style="font-weight:bold;font-size:118.26729584px;font-family:'Century Gothic';fill:#4d4d4d;stroke-width:4.10168123">
      <path
         inkscape:connector-curvature="0"
         d="m 368.63996,48.141009 h 15.20681 V 79.85652 c 0,6.173657 0.38566,10.470984 1.15704,12.891992 0.77133,2.380699 2.00184,4.236821 3.69151,5.568372 1.72635,1.331581 3.83841,1.997366 6.33617,1.997346 2.4977,0 4.60975,-0.64559 6.33617,-1.936821 1.76306,-1.33155 3.06703,-3.268373 3.9119,-5.810475 0.62438,-1.896451 0.9366,-5.951675 0.93665,-12.165682 V 48.141009 h 15.09662 v 27.902386 c 0,11.499925 -0.82652,19.368269 -2.47938,23.605056 -2.02028,5.164879 -4.99553,9.139399 -8.92574,11.923579 -3.9303,2.74384 -8.92577,4.11575 -14.98641,4.11575 -6.57496,0 -11.90101,-1.61402 -15.97818,-4.84206 -4.04046,-3.22803 -6.88715,-7.72711 -8.54005,-13.497249 -1.17541,-3.994681 -1.76311,-11.257767 -1.76311,-21.789282 v -27.41818"
         id="path2910-3"
         style="stroke-width:4.10168123" />
      <path
         inkscape:connector-curvature="0"
         d="m 427.4874,48.141009 h 14.98642 v 6.718362 c 3.41599,-3.147279 6.50143,-5.326204 9.25631,-6.536785 2.79156,-1.250798 5.63825,-1.876231 8.54007,-1.876298 5.95044,0 11.00101,2.279869 15.15171,6.839413 3.48943,3.873706 5.23417,9.603475 5.23423,17.189323 V 113.99306 H 465.77991 V 85.122263 c 0,-7.868315 -0.33063,-13.093703 -0.99175,-15.676178 -0.62447,-2.582386 -1.74478,-4.539385 -3.36092,-5.871001 -1.57949,-1.371866 -3.54462,-2.057824 -5.89541,-2.057876 -3.04873,0 -5.67503,1.129865 -7.87887,3.389443 -2.16719,2.219326 -3.67317,5.306138 -4.51797,9.260445 -0.4408,2.057915 -0.66119,6.516643 -0.66117,13.376198 V 113.99306 H 427.4874 V 48.141009"
         id="path2912-9"
         style="stroke-width:4.10168123" />
      <path
         inkscape:connector-curvature="0"
         d="m 496.41763,21.025458 c 2.64465,0 4.90363,1.049205 6.77695,3.147341 1.91001,2.098315 2.86502,4.640395 2.86505,7.626249 0,2.945667 -0.93668,5.467572 -2.80996,7.565722 -1.87332,2.05795 -4.11393,3.086888 -6.72185,3.086815 -2.6814,0 -4.97711,-1.049041 -6.88714,-3.14734 -1.87331,-2.138501 -2.80996,-4.720931 -2.80995,-7.7473 0,-2.905153 0.93664,-5.386707 2.80995,-7.444672 1.8733,-2.057785 4.13228,-3.086722 6.77695,-3.086815 m -7.54831,27.115551 h 15.09662 V 113.99306 H 488.86932 V 48.141009"
         id="path2914-9"
         style="stroke-width:4.10168123" />
      <path
         inkscape:connector-curvature="0"
         d="m 573.83283,61.456682 -12.50705,7.565723 c -2.35087,-2.703438 -4.68331,-4.579735 -6.99734,-5.628898 -2.27739,-1.049062 -4.95878,-1.573619 -8.04418,-1.573671 -5.61994,0 -10.17463,1.856175 -13.66409,5.568372 -3.45277,3.671941 -5.17915,8.392947 -5.17913,14.163033 0,5.60875 1.67126,10.18853 5.01384,13.739353 3.34253,3.550862 7.73193,5.326286 13.16821,5.326266 6.72181,0 11.95603,-2.521888 15.70269,-7.56572 l 11.84588,8.89729 c -6.42806,9.15957 -15.50071,13.73935 -27.21798,13.73935 -10.54195,0 -18.80651,-3.42979 -24.79371,-10.28938 -5.9505,-6.859573 -8.92574,-14.889319 -8.92574,-24.089261 0,-6.375344 1.45089,-12.246339 4.35268,-17.613003 2.90177,-5.366564 6.94222,-9.583189 12.12136,-12.649889 5.21584,-3.066574 11.03776,-4.599892 17.46579,-4.599959 5.95045,0 11.29487,1.311457 16.03327,3.934175 4.7383,2.582495 8.61346,6.274564 11.6255,11.076219"
         id="path2916-7"
         style="stroke-width:4.10168123" />
      <path
         inkscape:connector-curvature="0"
         d="m 611.08221,46.446288 c 5.6566,0 10.96428,1.553561 15.92307,4.660485 4.99542,3.10705 8.88895,7.323675 11.6806,12.649889 2.79153,5.326313 4.18733,11.076257 4.1874,17.249847 0,6.214008 -1.41423,12.024477 -4.2425,17.431426 -2.79164,5.406985 -6.61172,9.643785 -11.46021,12.710415 -4.84859,3.02629 -10.19301,4.53943 -16.03326,4.53943 -8.59518,0 -15.94146,-3.34909 -22.03886,-10.04728 -6.06069,-6.738519 -9.09103,-14.909492 -9.09102,-24.512938 0,-10.289341 3.43438,-18.863818 10.30316,-25.723458 6.02393,-5.971813 12.9478,-8.957749 20.77162,-8.957816 m 0.22039,15.555125 c -4.66492,0 -8.55845,1.795649 -11.68059,5.386795 -3.08547,3.550889 -4.62818,8.110494 -4.62816,13.678828 0,5.7298 1.52433,10.370106 4.57306,13.92093 3.08541,3.550861 6.97894,5.326284 11.68059,5.326264 4.70158,0 8.61347,-1.795578 11.73569,-5.38679 3.12212,-3.591174 4.68321,-8.211305 4.68326,-13.860404 0,-5.649035 -1.54277,-10.228815 -4.62816,-13.739354 -3.04876,-3.550795 -6.96065,-5.326216 -11.73569,-5.326269"
         id="path2918-0"
         style="stroke-width:4.10168123" />
      <path
         inkscape:connector-curvature="0"
         d="m 649.04794,48.141009 h 12.89273 v 8.292033 c 1.39578,-3.268332 3.25071,-5.749887 5.56481,-7.444672 2.31405,-1.694655 4.84852,-2.542015 7.60341,-2.542082 1.94673,0 3.98532,0.564973 6.11577,1.694721 l -4.68325,14.22356 c -1.76314,-0.96836 -3.21403,-1.452567 -4.35267,-1.452619 -2.31411,0 -4.27924,1.573721 -5.89539,4.721011 -1.57948,3.147385 -2.36921,9.321009 -2.36919,18.52089 l 0.055,3.207866 V 113.99306 H 649.04784 V 48.141009"
         id="path2920-3"
         style="stroke-width:4.10168123" />
      <path
         inkscape:connector-curvature="0"
         d="m 687.39927,48.141009 h 14.98642 v 6.718362 c 3.41599,-3.147279 6.50143,-5.326204 9.25632,-6.536785 2.79155,-1.250798 5.63823,-1.876231 8.54005,-1.876298 5.95044,0 11.00102,2.279869 15.15172,6.839413 3.48942,3.873706 5.23417,9.603475 5.23422,17.189323 V 113.99306 H 725.69178 V 85.122263 c 0,-7.868315 -0.33063,-13.093703 -0.99175,-15.676178 -0.62448,-2.582386 -1.74479,-4.539385 -3.36093,-5.871001 -1.57948,-1.371866 -3.54462,-2.057824 -5.89539,-2.057876 -3.04874,0 -5.67504,1.129865 -7.87889,3.389443 -2.16718,2.219326 -3.67317,5.306138 -4.51797,9.260445 -0.44079,2.057915 -0.66118,6.516643 -0.66116,13.376198 V 113.99306 H 687.39927 V 48.141009"
         id="path2922-9"
         style="stroke-width:4.10168123" />
      <path
         inkscape:connector-curvature="0"
         d="m 364.53123,32.134836 0.90336,-12.702183 c -7.40748,0.793885 -10.84023,0.992358 -14.81498,0.992358 -1.44536,0 -3.61341,0 -6.50412,-0.198472 -7.40749,-5.954141 -15.89901,-8.534279 -27.46191,-8.534279 -23.12578,0 -39.20546,14.68692 -39.20546,35.526417 0,7.343441 2.34872,13.893016 6.6848,19.053272 3.43273,3.969429 6.1428,5.755679 12.46625,8.137336 l -12.8276,10.717466 c -1.80669,1.3893 -3.07139,5.557209 -3.07139,9.526636 0,7.144973 3.25207,10.717473 12.28559,13.297603 l -14.6343,9.52663 c -2.71006,1.78625 -4.69743,6.94651 -4.69743,12.30524 0,17.26701 15.17633,28.18296 39.0248,28.18296 31.61728,0 52.93641,-18.06094 52.93641,-44.45763 0,-16.671598 -8.49152,-24.610478 -26.73921,-24.610478 h -4.33609 c -17.88635,0.595414 -24.3905,0.793886 -26.37787,0.793886 -5.60078,0 -8.49151,-1.98472 -8.49151,-5.954148 0,-2.977071 1.62603,-5.358736 5.23944,-7.740392 3.25207,0.198471 5.05877,0.396943 7.22681,0.396943 12.46625,0 24.02918,-4.564855 31.43665,-12.702182 5.60078,-6.152613 7.9495,-13.099135 7.9495,-23.022705 0,-3.175543 -0.18067,-5.557208 -0.90336,-9.328165 l 13.91162,0.793887 M 314.48554,21.615841 c 9.57552,0 14.81497,8.534294 14.81497,24.213534 0,14.091469 -4.8781,21.434933 -14.45363,21.434933 -9.39485,0 -15.17631,-8.931237 -15.17631,-23.816592 0,-14.289941 5.05878,-21.831875 14.81497,-21.831875 m 3.61341,86.533619 c 22.04176,0 27.4619,3.17555 27.4619,15.87772 0,13.69453 -12.10494,24.01507 -28.18458,24.01507 -16.07965,0 -26.73921,-8.33582 -26.73921,-20.64105 0,-7.34344 3.79407,-14.09148 9.21418,-17.06856 2.89072,-1.3893 9.39487,-2.18318 18.24771,-2.18318"
         id="path2884-5"
         style="font-size:189.36192322px;font-family:Palatino;stroke-width:4.10168123" />
    </g>
    <path
       inkscape:connector-curvature="0"
       d="m 114.15029,104.8155 a 15.8261,1.1190172 0 0 1 -31.652132,0 15.8261,1.1190172 0 1 1 31.652132,0 z"
       id="path3423-1"
       style="opacity:0.26353838;fill:url(#linearGradient3003);stroke-width:0.26458332" />
    <path
       inkscape:connector-curvature="0"
       d="m 96.185418,105.2661 c -0.30639,-0.0975 -0.30747,-0.14059 -0.0252,-0.99763 0.28189,-0.85589 0.1527,-1.65072 -0.36985,-2.27549 -0.71058,-0.84959 -1.05276,-1.57455 -1.16183,-2.461528 -0.0936,-0.76149 -0.12331,-0.82185 -0.43334,-0.88138 -0.20794,-0.0399 -0.49521,0.0392 -1.17985,0.32474 -0.99608,0.41549 -1.23332,0.59794 -1.46837,1.129208 -0.12347,0.27908 -0.13831,0.44626 -0.0683,0.76909 0.0855,0.3942 0.43602,1.02875 0.5687,1.0296 0.0346,2.4e-4 0.22592,0.13125 0.42509,0.29116 0.3305,0.26535 0.35319,0.31145 0.25967,0.52775 -0.20321,0.46999 -0.686,1.03982 -0.88101,1.03982 -0.10941,0 -0.5562,-0.31296 -1.04799,-0.73407 -0.966,-0.82715 -1.00649,-0.91008 -1.10626,-2.26589 -0.11905,-1.617688 0.27875,-2.372668 2.05048,-3.891548 l 1.11123,-0.95264 0.071,-0.57786 c 0.0732,-0.59569 -0.03,-2.01413 -0.20341,-2.7971 -0.10245,-0.46255 -0.44056,-0.9031 -0.76142,-0.99212 -0.34957,-0.097 -0.55449,0.10312 -0.82043,0.80115 -0.28692,0.75314 -0.56114,1.01588 -1.06026,1.01588 -0.31088,0 -0.60098,-0.19886 -0.8013,-0.54928 -0.14354,-0.2511 -0.22687,-1.75956 -0.14106,-2.55361 0.0413,-0.38196 0.0436,-0.76869 0.005,-0.8594 -0.0625,-0.14759 -0.6003,-0.46686 -1.86831,-1.10904 -0.23052,-0.11674 -0.49925,-0.27393 -0.59719,-0.3493 -0.0979,-0.0754 -0.35208,-0.21396 -0.56475,-0.30796 -0.48173,-0.21292 -1.73779,-0.94735 -1.6202,-0.94735 0.22246,0 1.16523,0.29016 1.6671,0.5131 0.30638,0.1361 0.59965,0.24745 0.65172,0.24745 0.0521,0 0.64274,0.19014 1.31258,0.42253 0.66985,0.23239 1.28209,0.42253 1.36053,0.42253 0.1863,0 0.21551,-0.16119 0.15581,-0.85969 -0.0271,-0.3173 -0.0259,-0.57691 0.003,-0.57691 0.0286,0 0.15202,0.0613 0.27431,0.13613 0.3736,0.22875 1.1772,0.36885 2.12172,0.3699 0.90314,9e-4 2.082,0.18019 2.53255,0.38494 0.64634,0.29373 1.39607,1.21114 2.34713,2.87207 0.6612,1.15471 1.37165,1.64366 2.38982,1.64473 0.4116,4.5e-4 1.509752,-0.16922 2.996842,-0.46299 1.22617,-0.24222 2.84487,-0.29667 3.47319,-0.11682 0.7665,0.21941 1.78001,0.80597 2.61798,1.51515 0.78431,0.66375 0.9051,0.81112 1.38689,1.69191 0.57498,1.05116 1.20957,2.5451 1.77389,4.17604 0.0804,0.23239 0.25025,0.6233 0.37741,0.86869 0.33931,0.654728 0.3224,0.694658 -0.29419,0.694658 -0.66923,0 -0.98308,-0.10552 -1.42178,-0.47806 -0.42077,-0.357298 -0.53068,-0.575888 -1.18925,-2.365208 -0.33734,-0.91652 -0.66571,-1.46651 -0.8756,-1.46651 -0.14381,0 -0.43489,0.98215 -0.43489,1.4674 0,0.34464 0.21598,0.81023 0.77436,1.66932 0.90709,1.395578 1.38425,3.368438 1.19325,4.933568 l -0.0825,0.67604 -0.60453,0.0252 c -0.95176,0.0396 -0.94223,0.0529 -0.94223,-1.30811 0,-1.44888 -0.0987,-1.76265 -0.73806,-2.34698 -0.26558,-0.24271 -0.86141,-0.93229 -1.32408,-1.532388 -0.46268,-0.60011 -0.90576,-1.09111 -0.98463,-1.09111 -0.18125,0 -0.27162,0.4935 -0.28126,1.535748 -0.006,0.68638 -0.0334,0.80256 -0.23587,1.01407 -0.549,0.57339 -0.93437,1.61746 -1.17194,3.17512 -0.0526,0.34477 -0.0977,0.40927 -0.32115,0.45945 -0.32862,0.0738 -1.23925,0.0859 -1.31772,0.0175 -0.0677,-0.059 0.0509,-0.99523 0.31994,-2.52587 0.10211,-0.58098 0.21357,-1.36054 0.24768,-1.73236 0.0607,-0.66193 -0.075,-1.902068 -0.23562,-2.152968 -0.0668,-0.10432 -0.40687,-0.12693 -1.99751,-0.13277 -1.054362,-0.004 -2.210672,-0.0386 -2.569562,-0.0771 l -0.65253,-0.07 v 0.28957 c 0,0.31009 0.0795,0.58341 0.61098,2.101028 0.1872,0.53449 0.45845,1.34934 0.6028,1.81076 l 0.26244,0.83894 -0.22147,0.68216 c -0.1218,0.37518 -0.30257,0.82476 -0.40172,0.99905 -0.17486,0.30742 -0.19537,0.3167 -0.68582,0.31022 -0.27806,-0.004 -0.6294,-0.0461 -0.78075,-0.0943 z"
       id="path3046-2-3-0"
       style="fill:#499848;stroke-width:0.26458332" />
    <path
       style="fill:none;stroke:#000000;stroke-width:0.26499999;stroke-linecap:butt;stroke-linejoin:miter;stroke-miterlimit:4;stroke-dasharray:none;stroke-opacity:1;marker-start:url(#Arrow1Lstart);marker-end:url(#Arrow1Lend)"
       d="M 171.05249,88.166101 V 68.885457"
       id="path1294"
       inkscape:connector-curvature="0" />
    <path
       style="fill:none;stroke:#000000;stroke-width:0.26499999;stroke-linecap:butt;stroke-linejoin:miter;stroke-miterlimit:4;stroke-dasharray:none;stroke-opacity:1;marker-start:url(#Arrow1Lstart-9);marker-end:url(#Arrow1Lend-2)"
       d="M 57.68201,98.151472 H 81.030865"
       id="path1294-0"
       inkscape:connector-curvature="0" />
    <path
       style="stroke-width:2.50527334"
       inkscape:connector-curvature="0"
       d="m 179.63994,60.012613 c -0.0975,-0.29536 -0.35298,-0.50107 -0.68335,-0.55044 -0.15578,-0.0232 -0.33417,-0.0133 -0.54529,0.0302 -0.36798,0.0759 -0.64097,0.10483 -0.84021,0.11042 0.75203,-1.26968 1.36352,-2.71758 1.71555,-4.08052 0.56925,-2.20386 0.26506,-3.20785 -0.0904,-3.66198 -0.94071,-1.20202 -2.31319,-1.84775 -3.96896,-1.86752 -0.88328,-0.0108 -1.65869,0.1636 -2.0632,0.28901 -0.37661,-0.0665 -0.78156,-0.10355 -1.20646,-0.11042 -0.7965,-0.0127 -1.50025,0.16093 -2.10158,0.51779 -0.3329,-0.11258 -0.86721,-0.27129 -1.48423,-0.37255 -1.45119,-0.23825 -2.62081,-0.0526 -3.47633,0.55177 -1.03595,0.73176 -1.51619,2.00316 -1.42737,3.77888 0.0282,0.56378 0.34358,2.27914 0.84014,3.90593 0.28539,0.93507 0.58971,1.71155 0.90451,2.30811 0.44644,0.84593 0.92413,1.34408 1.4604,1.52299 0.30057,0.10012 0.84669,0.17026 1.42108,-0.30813 0.0728,0.0882 0.16995,0.17579 0.29886,0.25718 0.16372,0.10324 0.36391,0.18761 0.56384,0.23761 0.72052,0.18011 1.39542,0.13507 1.9712,-0.11741 0.003,0.10241 0.006,0.20025 0.009,0.28475 0.004,0.13704 0.008,0.2714 0.0127,0.39707 0.0341,0.84968 0.0919,1.51035 0.26322,1.97261 0.009,0.0254 0.022,0.0642 0.0354,0.10527 0.0855,0.26162 0.22833,0.69961 0.59186,1.04262 0.37643,0.35533 0.83176,0.46429 1.24878,0.46429 0.20915,0 0.4087,-0.0274 0.58373,-0.0649 0.62389,-0.13373 1.33246,-0.33742 1.84503,-1.06727 0.48462,-0.68996 0.7202,-1.72915 0.76283,-3.36655 0.005,-0.0463 0.0106,-0.0905 0.0155,-0.13266 l 0.0102,-0.0865 0.11416,0.01 0.0294,0.002 c 0.63545,0.029 1.41244,-0.10578 1.88963,-0.32744 0.37706,-0.17497 1.58538,-0.81289 1.30088,-1.67413"
       id="path4690" />
    <path
       inkscape:connector-curvature="0"
       style="fill:#336791;stroke-width:2.50527334"
       d="m 178.55342,60.180083 c -1.88944,0.38977 -2.01936,-0.24994 -2.01936,-0.24994 1.9949,-2.96013 2.82889,-6.7176 2.10926,-7.63722 -1.96339,-2.50855 -5.36202,-1.32216 -5.41876,-1.29141 l -0.0182,0.003 c -0.37331,-0.0775 -0.79103,-0.12363 -1.2606,-0.13132 -0.85488,-0.014 -1.50342,0.22414 -1.99553,0.59733 0,0 -6.06285,-2.49769 -5.78083,3.14126 0.06,1.19961 1.71943,9.07699 3.6987,6.69766 0.72343,-0.87007 1.42247,-1.6057 1.42247,-1.6057 0.34714,0.23062 0.76277,0.34828 1.19847,0.30603 l 0.0339,-0.0287 c -0.0105,0.108 -0.006,0.21365 0.0135,0.33875 -0.50991,0.56969 -0.36004,0.66969 -1.37934,0.87953 -1.03144,0.21258 -0.42554,0.59098 -0.0299,0.68996 0.4796,0.11988 1.58912,0.28977 2.3388,-0.75972 l -0.0299,0.11976 c 0.19974,0.16004 0.34002,1.04085 0.31651,1.83938 -0.0235,0.79847 -0.0392,1.34668 0.11817,1.77489 0.1575,0.4282 0.31436,1.39166 1.65437,1.10456 1.11962,-0.23996 1.69986,-0.86175 1.78061,-1.89897 0.0572,-0.73735 0.18691,-0.62832 0.19504,-1.2876 l 0.104,-0.31206 c 0.11989,-0.99955 0.0191,-1.32204 0.70883,-1.17204 l 0.16772,0.0147 c 0.50762,0.0231 1.17216,-0.0817 1.56219,-0.26296 0.83976,-0.3897 1.33785,-1.04046 0.50978,-0.8695 h 1.2e-4"
       id="path4692" />
    <path
       inkscape:connector-curvature="0"
       style="fill:#ffffff;stroke-width:2.50527334"
       d="m 170.30508,55.148553 c -0.17026,-0.0237 -0.32445,-0.002 -0.40247,0.0573 -0.0438,0.0332 -0.0574,0.0717 -0.0611,0.0982 -0.01,0.0702 0.0394,0.14784 0.0696,0.18787 0.0855,0.11334 0.21042,0.19123 0.33405,0.20838 0.0179,0.003 0.0358,0.004 0.0535,0.004 0.20616,0 0.39364,-0.16055 0.41016,-0.27903 0.0207,-0.14841 -0.19479,-0.24733 -0.40374,-0.27637 m 5.64061,0.005 c -0.0163,-0.11632 -0.22325,-0.14949 -0.41969,-0.12217 -0.19619,0.0273 -0.3864,0.11588 -0.37052,0.23246 0.0127,0.0907 0.17643,0.24543 0.3702,0.24543 0.0164,0 0.0329,-9.1e-4 0.0495,-0.004 0.12935,-0.0179 0.22427,-0.10007 0.26938,-0.1474 0.0686,-0.0722 0.10838,-0.1526 0.10107,-0.20489"
       id="path4694" />
    <path
       inkscape:connector-curvature="0"
       style="fill:#ffffff;stroke-width:2.50527334"
       d="m 179.18213,60.135803 c -0.0721,-0.21785 -0.30393,-0.28793 -0.68919,-0.20839 -1.14389,0.23609 -1.55354,0.0726 -1.68804,-0.0265 0.88913,-1.3545 1.62057,-2.99184 2.01517,-4.51947 0.18691,-0.72362 0.29015,-1.39566 0.29859,-1.94344 0.009,-0.6012 -0.0931,-1.043 -0.30425,-1.31288 -0.85145,-1.08798 -2.10112,-1.67158 -3.61382,-1.6876 -1.03995,-0.0117 -1.9186,0.25445 -2.08893,0.32929 -0.35869,-0.0892 -0.74973,-0.14396 -1.17546,-0.15095 -0.78068,-0.0127 -1.45551,0.17426 -2.01421,0.55527 -0.2427,-0.0904 -0.86988,-0.30566 -1.6369,-0.42922 -1.32604,-0.21347 -2.37978,-0.0517 -3.13174,0.481 -0.89726,0.63569 -1.31149,1.77202 -1.23125,3.37735 0.027,0.54008 0.33475,2.20157 0.82039,3.79272 0.63926,2.09427 1.33417,3.27983 2.06529,3.52373 0.0856,0.0285 0.18424,0.0485 0.29307,0.0485 0.26671,0 0.59371,-0.12021 0.93392,-0.52922 a 33.661203,33.661203 0 0 1 1.28722,-1.45654 c 0.28742,0.15426 0.60317,0.24041 0.92611,0.24905 5.9e-4,0.008 0.001,0.0169 0.002,0.0253 a 7.4751568,7.4751568 0 0 0 -0.16328,0.20171 c -0.22376,0.28405 -0.27033,0.3432 -0.99059,0.49149 -0.20489,0.0423 -0.74904,0.15444 -0.75705,0.53588 -0.009,0.41677 0.64326,0.59181 0.71753,0.61036 0.25883,0.0648 0.50819,0.0967 0.74599,0.0967 0.57833,0 1.08729,-0.19008 1.49402,-0.55787 -0.0125,1.48576 0.0494,2.94979 0.22782,3.39584 0.14613,0.36518 0.50305,1.25762 1.63048,1.25755 0.16544,0 0.34752,-0.0192 0.54784,-0.0622 1.17667,-0.25222 1.68766,-0.7723 1.88531,-1.91886 0.10578,-0.61276 0.28729,-2.07596 0.37268,-2.86084 0.18017,0.0562 0.41213,0.082 0.66289,0.0819 0.52299,0 1.12648,-0.11112 1.50494,-0.28679 0.42515,-0.19745 1.19237,-0.68195 1.05323,-1.10291 z M 176.38,54.832163 c -0.004,0.2317 -0.0358,0.44205 -0.0696,0.66162 -0.0364,0.23615 -0.074,0.4803 -0.0835,0.77668 -0.009,0.28843 0.0267,0.5883 0.0615,0.87833 0.0704,0.58576 0.14263,1.1888 -0.13698,1.78384 a 2.3194206,2.3194206 0 0 1 -0.12388,-0.2547 c -0.0348,-0.0842 -0.11023,-0.21956 -0.21474,-0.40685 -0.40654,-0.7291 -1.35857,-2.43645 -0.87121,-3.13314 0.14517,-0.20737 0.51359,-0.42058 1.43836,-0.30578 z m -1.12096,-3.92544 c 1.35539,0.0299 2.42755,0.53697 3.18663,1.50697 0.58221,0.74402 -0.0589,4.12945 -1.91485,7.05007 a 10.884911,10.884911 0 0 0 -0.0563,-0.071 l -0.0235,-0.0293 c 0.4796,-0.79206 0.38583,-1.57572 0.30235,-2.27051 -0.0343,-0.28513 -0.0667,-0.55444 -0.0585,-0.80742 0.009,-0.26811 0.044,-0.49809 0.0783,-0.72045 0.0421,-0.27402 0.085,-0.55756 0.0732,-0.8918 0.009,-0.0351 0.0124,-0.0765 0.008,-0.12566 -0.0302,-0.32052 -0.39612,-1.27979 -1.14199,-2.14802 -0.408,-0.4749 -1.00297,-1.00634 -1.81535,-1.36479 0.34942,-0.0724 0.82724,-0.13996 1.36225,-0.12808 z m -7.5843,10.22989 c -0.37484,0.4507 -0.63367,0.3643 -0.7188,0.33596 -0.55464,-0.185 -1.19821,-1.35729 -1.76562,-3.21624 -0.49097,-1.60849 -0.77788,-3.22595 -0.80062,-3.67951 -0.0717,-1.43442 0.27604,-2.43409 1.03353,-2.97132 1.23277,-0.87419 3.25957,-0.35094 4.07398,-0.0856 -0.0117,0.0115 -0.0239,0.0224 -0.0355,0.0341 -1.33645,1.34968 -1.30475,3.65563 -1.30145,3.7966 -1.2e-4,0.0544 0.004,0.13139 0.0107,0.2373 0.023,0.38786 0.0658,1.1097 -0.0485,1.92717 -0.10622,0.75965 0.12796,1.50316 0.64237,2.03994 a 2.3046176,2.3046176 0 0 0 0.16626,0.1568 c -0.22896,0.24523 -0.72661,0.78754 -1.25634,1.42476 z m 1.42813,-1.90551 c -0.41461,-0.43265 -0.60292,-1.03442 -0.51671,-1.65119 0.12072,-0.86352 0.0762,-1.61561 0.0522,-2.01967 -0.003,-0.0565 -0.006,-0.1061 -0.008,-0.14517 0.19524,-0.17313 1.1,-0.65788 1.74522,-0.51004 0.29441,0.0674 0.47382,0.26791 0.54841,0.61277 0.38602,1.78543 0.0511,2.52958 -0.21804,3.12761 -0.0555,0.12319 -0.10788,0.23964 -0.1526,0.36009 l -0.0347,0.0931 c -0.0878,0.23545 -0.16951,0.45438 -0.22014,0.66226 -0.44079,-10e-4 -0.86956,-0.18958 -1.19561,-0.52986 z m 0.0677,2.40786 c -0.12872,-0.0322 -0.24447,-0.088 -0.31239,-0.1343 0.0567,-0.0267 0.15769,-0.063 0.33278,-0.0991 0.84733,-0.1744 0.9782,-0.29752 1.26397,-0.66035 0.0655,-0.0832 0.13977,-0.17751 0.24263,-0.29238 l 1.2e-4,-1.3e-4 c 0.15318,-0.17153 0.22325,-0.14243 0.35032,-0.0897 0.10298,0.0426 0.2033,0.17166 0.24396,0.31372 0.0192,0.0671 0.0408,0.19441 -0.0299,0.29352 -0.59695,0.83582 -1.46682,0.82508 -2.09153,0.66873 z m 4.43446,4.12652 c -1.03659,0.22211 -1.40361,-0.30679 -1.64548,-0.91143 -0.1561,-0.39034 -0.23284,-2.15055 -0.1784,-4.09443 7.8e-4,-0.0258 -0.003,-0.0508 -0.0101,-0.0743 a 0.9811858,0.9811858 0 0 0 -0.029,-0.13736 c -0.0809,-0.28285 -0.2782,-0.51944 -0.51486,-0.61753 -0.094,-0.0389 -0.26658,-0.11042 -0.47395,-0.0574 0.0442,-0.18221 0.12091,-0.38799 0.20407,-0.61079 l 0.0349,-0.0937 c 0.0393,-0.10565 0.0886,-0.21511 0.14066,-0.33099 0.28163,-0.62567 0.66734,-1.48265 0.24872,-3.41865 -0.15679,-0.72516 -0.68042,-1.07928 -1.47419,-0.99701 -0.47585,0.0492 -0.91124,0.24123 -1.12839,0.35133 -0.0467,0.0237 -0.0894,0.0465 -0.12928,0.0687 0.0606,-0.73062 0.28957,-2.09605 1.14611,-2.95995 0.53932,-0.54384 1.25755,-0.81245 2.13264,-0.79797 1.72425,0.0282 2.82996,0.91309 3.45397,1.6505 0.53773,0.63538 0.8289,1.27546 0.9451,1.6207 -0.87388,-0.0889 -1.46822,0.0836 -1.76949,0.51435 -0.65546,0.93697 0.35857,2.7555 0.84593,3.62951 0.0894,0.16017 0.16651,0.2986 0.19078,0.35743 0.1587,0.38462 0.36417,0.64142 0.51417,0.82884 0.046,0.0574 0.0906,0.11315 0.12452,0.16181 -0.26467,0.0763 -0.74008,0.2526 -0.69675,1.13386 -0.0349,0.44218 -0.28342,2.51243 -0.40966,3.24387 -0.16664,0.96632 -0.52223,1.32623 -1.52203,1.54065 z m 4.32677,-4.95142 c -0.27065,0.12561 -0.72356,0.21983 -1.1538,0.24009 -0.47522,0.0223 -0.71715,-0.0532 -0.77407,-0.0997 -0.0267,-0.54917 0.1777,-0.60654 0.39402,-0.66728 0.034,-0.009 0.0671,-0.0189 0.0992,-0.0301 0.0199,0.0162 0.0417,0.0323 0.0656,0.048 0.38195,0.2521 1.06321,0.27929 2.02501,0.0807 l 0.0106,-0.002 c -0.12973,0.12128 -0.35171,0.28405 -0.66645,0.43024 z"
       id="path4696" />
    <rect
       style="fill:none;fill-opacity:1;stroke:#221f19;stroke-width:0.26499999;stroke-miterlimit:4;stroke-dasharray:none;stroke-dashoffset:0;stroke-opacity:1"
       id="rect815-3-3"
       width="31.404173"
       height="9.7553358"
       x="86.895691"
       y="127.23296"
       ry="1.3669897" />
    <text
       xml:space="preserve"
       style="font-style:normal;font-variant:normal;font-weight:normal;font-stretch:normal;font-size:1.05833328px;line-height:1.25;font-family:'Berenis ADF Pro';-inkscape-font-specification:'Berenis ADF Pro';letter-spacing:0px;word-spacing:0px;fill:#000000;fill-opacity:1;stroke:none;stroke-width:0.26458332"
       x="89.768837"
       y="133.31334"
       id="text1819"><tspan
         sodipodi:role="line"
         id="tspan1817"
         x="89.768837"
         y="133.31334"
         style="font-size:4.58611107px;stroke-width:0.26458332">Static content</tspan></text>
    <path
       style="fill:none;stroke:#000000;stroke-width:0.26499999;stroke-linecap:butt;stroke-linejoin:miter;stroke-miterlimit:4;stroke-dasharray:none;stroke-opacity:1;marker-start:url(#Arrow1Lstart-9-6);marker-end:url(#Arrow1Lend-2-5)"
       d="m 52.074544,106.04392 29.017328,19.92742"
       id="path1294-0-5"
       inkscape:connector-curvature="0" />
    <path
       style="fill:none;stroke:#000000;stroke-width:0.26499999;stroke-linecap:butt;stroke-linejoin:miter;stroke-miterlimit:4;stroke-dasharray:none;stroke-opacity:1;marker-start:url(#Arrow1Lstart-9-62);marker-end:url(#Arrow1Lend-2-1)"
       d="m 122.7499,98.167387 h 23.34885"
       id="path1294-0-7"
       inkscape:connector-curvature="0" />
    <rect
       style="fill:none;fill-opacity:1;stroke:#221f19;stroke-width:0.26499999;stroke-miterlimit:4;stroke-dasharray:1.05999996, 1.05999996;stroke-dashoffset:0;stroke-opacity:1"
       id="rect815-3-3-0"
       width="178.13515"
       height="63.877415"
       x="15.604681"
       y="77.430298"
       ry="8.9509754" />
  </g>
</svg>
